<?xml version="1.0" standalone="no"?>
<!DOCTYPE svg PUBLIC "-//W3C//DTD SVG 20010904//EN"
 "http://www.w3.org/TR/2001/REC-SVG-20010904/DTD/svg10.dtd">
<svg version="1.0" xmlns="http://www.w3.org/2000/svg"
 width="421.000000pt" height="421.000000pt" viewBox="0 0 421.000000 421.000000"
 preserveAspectRatio="xMidYMid meet">
<metadata>
Created by potrace 1.14, written by Peter Selinger 2001-2017
</metadata>
<g transform="translate(0.000000,421.000000) scale(0.100000,-0.100000)"
fill="#000000" stroke="none">
<path d="M1780 3683 c-40 -13 -82 -20 -210 -38 -19 -3 -69 -7 -110 -9 -83 -5
-206 -34 -276 -66 -76 -33 -183 -110 -259 -184 -64 -64 -195 -225 -195 -240 0
-4 -11 -24 -24 -45 -14 -21 -22 -42 -19 -45 4 -3 1 -6 -6 -6 -7 0 -10 -4 -6
-9 3 -5 1 -12 -4 -15 -9 -6 -30 -66 -51 -146 -19 -70 -20 -79 -25 -185 -11
-223 -16 -302 -19 -322 -3 -11 -7 -38 -10 -59 -4 -22 -9 -47 -12 -56 -3 -9 -7
-26 -9 -39 -2 -12 -12 -47 -21 -78 -22 -70 -20 -63 -27 -81 -7 -19 -31 -93
-32 -100 0 -3 -4 -11 -8 -17 -5 -7 -6 -13 -2 -13 3 0 1 -8 -4 -18 -16 -29 -25
-109 -25 -202 1 -143 43 -255 186 -492 139 -232 161 -312 133 -476 -14 -81
-11 -114 11 -105 9 3 14 -1 14 -12 0 -15 8 -16 63 -11 92 10 144 29 199 75 11
9 44 15 95 16 99 2 186 28 218 67 22 26 25 27 34 11 50 -86 128 -98 243 -38
43 23 74 24 88 5 3 -4 32 -16 65 -28 86 -30 182 -25 259 12 52 25 83 61 78 89
-1 4 2 7 8 7 5 0 10 -4 10 -9 0 -31 168 -48 255 -26 48 12 125 47 125 56 0 11
27 12 32 1 2 -4 15 -17 30 -28 27 -21 27 -22 9 -43 -27 -31 -22 -103 9 -136
13 -14 29 -25 37 -25 7 0 13 -5 13 -10 0 -6 3 -9 8 -8 4 1 21 -5 37 -12 39
-17 37 -16 125 -40 101 -27 131 -28 328 -4 68 8 172 43 241 81 70 39 152 117
173 164 7 16 17 29 21 29 5 0 5 5 2 10 -3 6 -2 10 3 10 5 0 13 15 17 33 4 17
10 39 13 47 2 8 5 53 5 100 1 104 -26 173 -124 325 -36 55 -74 118 -84 140
-37 80 -30 167 20 268 13 26 22 47 20 47 -2 0 2 11 9 25 13 24 13 76 0 96 -9
16 -62 36 -112 43 -12 1 -24 5 -27 8 -3 3 -7 43 -9 89 -4 89 -34 189 -84 278
-32 59 -34 61 -75 151 -19 41 -74 134 -122 205 -49 73 -124 206 -172 305 -47
96 -88 177 -91 180 -4 3 -14 18 -22 33 -8 16 -25 40 -37 53 -13 14 -23 27 -23
30 0 2 -13 19 -29 37 -16 17 -40 44 -53 58 -34 37 -124 109 -137 109 -6 0 -11
4 -11 9 0 5 -8 11 -17 15 -10 3 -36 17 -58 31 -52 32 -160 84 -185 89 -3 1 -9
4 -15 7 -9 6 -52 17 -135 35 -57 13 -216 11 -260 -3z"/>
</g>
</svg>
